<svg xmlns="http://www.w3.org/2000/svg" viewBox="0 0 219 32" width="100%" height="100%">
  <path fill="currentColor" d="M25.12 14c-0.48-2.96-3.68-8-9.76-8-5.44 0.080-9.76 4.4-9.76 10.32 0 5.36 4.48 10 9.84 10 5.92 0 8.96-5.040 9.44-6.72h5.6c-0.96 5.12-6.16 12.4-14.96 12.4-8.72 0-15.52-7.2-15.52-15.84 0-8.56 6.8-15.84 15.36-15.84 8.4 0 14.56 6.64 15.36 13.68h-5.6z"></path>
  <path fill="currentColor" d="M42.48 13.92c-2.96 0-5.44 2.24-5.44 5.44v12h-5.6v-21.84h5.36l0.24 2.24h0.080c1.68-2 3.44-2.8 5.12-2.8 0.64 0 1.2 0.080 1.36 0.24v4.72c-0.4 0.080-0.56 0-1.12 0z"></path>
  <path fill="currentColor" d="M62.080 27.040v-10.56c0-5.28-3.52-7.68-9.36-7.68-2.56 0-4.48 0.56-6 1.6-1.76 1.12-2.64 3.040-2.88 5.6h4.88c0.16-0.8 0.4-1.68 1.040-2.16 0.72-0.56 1.84-0.96 2.96-0.96 2 0 3.84 1.040 3.84 2.72 0 2.48-3.040 1.84-6.48 2.56-3.68 0.64-7.68 2.64-7.68 7.040 0 4.16 4 6.8 7.92 6.8 2.56 0 4.4-0.64 6.64-2.56 0.080 0.72 0.16 1.2 0.32 1.92h5.6c-0.72-1.28-0.8-2.8-0.8-4.32zM56.8 22.16c0 1.52-0.080 3.2-1.040 4-0.96 0.88-2.24 1.44-4.080 1.44-3.36 0-3.68-2.16-3.68-2.72 0-0.48 0.32-1.68 1.2-2.24 0.96-0.64 2.4-1.040 4.4-1.52 1.68-0.4 2.64-0.64 3.2-0.96v2z"></path>
  <path fill="currentColor" d="M70.56 31.44h-0.16c-4.4 0-5.36-2.72-5.36-5.28v-12.8h-2.88v-3.76h2.88v-7.36h5.52v7.28h3.92v3.76h-3.92v10.96c0 2 0.56 2.8 2.48 2.8h1.68v4.24c-3.12 0.16-4.16 0.16-4.16 0.16z"></path>
  <path fill="currentColor" d="M84.4 27.2c-2.72 0-5.12-2.16-5.12-4.96v-0.32h15.52c0-7.44-4-13.12-10.72-13.12s-10.64 5.76-10.64 11.36c0 5.92 3.92 11.84 11.2 11.84 7.6 0 9.92-6.48 9.92-7.44h-5.76c-0.8 1.52-2.32 2.64-4.4 2.64zM84 13.36c2.64 0 4.64 1.84 4.64 4.56h-9.36c0-1.84 1.44-4.56 4.72-4.56z"></path>
  <path fill="currentColor" d="M116.32 24.72c2.080-2.64 3.040-6.32 3.28-8.8h-4.8c0 0.32-1.6 4.72-1.6 4.72-1.2-1.6-2.48-3.28-3.76-5.040 1.76-1.2 4.88-3.36 4.88-7.44 0-4.32-3.6-7.2-7.68-7.2-4.64 0-7.36 3.68-7.36 6.72 0 3.52 2.8 6.32 3.12 6.8-2.88 1.28-7.040 4.16-7.040 9.44 0 3.6 2.96 8.16 8.88 8.16 3.68 0 6.72-1.6 8.64-3.36 0 0 1.2 1.6 2 2.72h4.48c1.84 0 1.84 0 1.84 0-1.84-2.64-3.36-4.72-4.88-6.72zM106.8 5.44c1.28 0 2.72 1.040 2.72 2.64 0 1.52-1.52 2.88-2.88 4-1.2-1.6-2.4-2.88-2.4-4.32 0-1.2 1.2-2.32 2.56-2.32zM104.24 27.2c-1.84 0-3.36-1.6-3.36-3.52 0-1.12 0.56-2.32 1.76-3.36 0.96-0.88 1.76-1.36 2.56-1.92 0.8 1.040 2.72 3.68 4.72 6.32-1.2 0.88-2.96 2.48-5.68 2.48z"></path>
  <path fill="currentColor" d="M139.44 15.44c0.32-0.24 4.56-1.44 4.56-6.32 0-3.12-1.52-7.52-10.16-7.52h-12.16v29.76h15.6c3.36 0 7.84-2.96 7.84-7.92 0-6.4-5.36-7.84-5.68-8zM127.28 6.24h6.48c3.36 0 4.64 1.76 4.64 3.6 0 2.88-2.64 3.76-4.64 3.76h-6.48v-7.36zM133.76 26.72h-6.48v-8.72h6.56c4.64 0 5.2 2.72 5.2 4.32 0 3.040-2.4 4.4-5.28 4.4z"></path>
  <path fill="currentColor" d="M165.28 27.040v-10.56c0-5.28-3.52-7.68-9.36-7.68-2.56 0-4.48 0.56-6 1.6-1.76 1.12-2.64 3.040-2.88 5.6h4.88c0.16-0.8 0.4-1.68 1.040-2.16 0.72-0.56 1.84-0.96 2.96-0.96 2 0 3.84 1.040 3.84 2.72 0 2.48-3.040 1.84-6.48 2.56-3.76 0.8-7.68 2.72-7.68 7.12 0 4.16 4 6.8 7.92 6.8 2.56 0 4.4-0.64 6.64-2.56 0.080 0.72 0.16 1.2 0.32 1.92h5.6c-0.72-1.36-0.8-2.88-0.8-4.4zM160 22.16c0 1.52-0.080 3.2-1.040 4-0.96 0.88-2.24 1.44-4.080 1.44-3.36 0-3.68-2.16-3.68-2.72 0-0.48 0.32-1.68 1.2-2.24 0.96-0.64 2.4-1.040 4.4-1.52 1.68-0.4 2.64-0.64 3.2-0.96v2z"></path>
  <path fill="currentColor" d="M177.92 13.92c-2.96 0-5.44 2.24-5.44 5.44v12h-5.6v-21.84h5.28l0.24 2.24h0.080c1.68-2 3.44-2.8 5.12-2.8 0.64 0 1.2 0.080 1.36 0.24v4.72c-0.32 0.080-0.48 0-1.040 0z"></path>
  <path fill="currentColor" d="M191.12 13.92c-2.96 0-5.44 2.24-5.44 5.44v12h-5.6v-21.84h5.28l0.24 2.24h0.080c1.68-2 3.44-2.8 5.12-2.8 0.64 0 1.2 0.080 1.36 0.24v4.72c-0.32 0.080-0.48 0-1.040 0z"></path>
  <path fill="currentColor" d="M202.24 27.2c-2.72 0-5.12-2.16-5.12-4.96v-0.32h15.52c0-7.44-4-13.12-10.72-13.12s-10.72 5.76-10.72 11.36c0 5.92 3.92 11.84 11.2 11.84 7.6 0 9.92-6.48 9.92-7.44h-5.76c-0.72 1.52-2.16 2.64-4.32 2.64zM201.84 13.36c2.64 0 4.64 1.84 4.64 4.56h-9.36c0-1.84 1.44-4.56 4.72-4.56z"></path>
  <path fill="currentColor" d="M213.52 1.6h5.6v29.76h-5.6v-29.76z"></path>
</svg>